<svg width="30" height="30" viewBox="0 0 30 30" fill="none" xmlns="http://www.w3.org/2000/svg">
<g clip-path="url(#clip0_2327_1089)">
<path d="M9.65038 1.84516C9.22931 0.828012 8.1192 0.28663 7.05831 0.576461L2.24602 1.8889C1.2945 2.15139 0.632812 3.01542 0.632812 3.99975C0.632812 17.5288 11.6026 28.4987 25.1317 28.4987C26.1161 28.4987 26.9801 27.837 27.2426 26.8855L28.555 22.0732C28.8449 21.0123 28.3035 19.9022 27.2863 19.4811L22.0366 17.2937C21.1452 16.9218 20.1116 17.1789 19.5046 17.928L17.2954 20.624C13.4455 18.803 10.3285 15.686 8.50747 11.8361L11.2034 9.63231C11.9526 9.01984 12.2096 7.99176 11.8378 7.10039L9.65038 1.85062V1.84516Z" fill="#1649A8"/>
</g>
<defs>
<clipPath id="clip0_2327_1089">
<rect width="29" height="29" fill="white" transform="translate(0.632812 0.5)"/>
</clipPath>
</defs>
</svg>
